#!OML:ASF F:\VICON\USERDATA\INSTALL\rory3\rory3.ASF
:FULLY-SPECIFIED
:DEGREES
28
root 0.3002520136149545 17.896880056745037 0.060085662101148074 -1.9785640524484591 -1.5462821832902707 1.3087001677731314
lfemur 3.620740553955237 -1.9728997483708561 -25.602052051437198
ltibia 21.354740471849432
lfoot -11.030670977669457 4.351458602544018
ltoes -14.398073419999054
rfemur -31.44959574959121 1.6327137064079666 18.03019445328549
rtibia 54.53653276462095
rfoot -11.694788348975132 -4.352051741294336
rtoes 2.2349928508139323
lowerback 10.159770167427899 -0.8669534823943074 -4.2049664800449875
upperback 0.4037116863601389 -1.674262488071597 1.223532324035849
thorax -5.263661297141399 -0.6847650268066433 3.457759210336838
lowerneck -17.6295926446892 -2.7593776853382246 -1.1456384472233054
upperneck 20.679286881473736 -3.581826257171645 1.0849063848925788
head 9.462447922426772 -1.7151232788081998 0.23803926346457976
lclavicle -4.0246386688343595e-15 -1.2347084418112406e-15
lhumerus -23.071020297144702 -4.0590168061519085 82.80459300324165
lradius 31.22331968769904
lwrist 7.663059193862237
lhand -26.800547657622793 23.249906621943147
lfingers 7.1250199999999975
lthumb -0.22748334824523808 53.20619798342478
rclavicle -4.0246386688343595e-15 -1.2347084418112406e-15
rhumerus -31.999062398974672 -19.70610668050778 -81.5992392070829
rradius 23.632876355410517
rwrist 1.8317997583339594
rhand -16.810813445812755 21.744146519209966
rfingers 7.1250199999999975
rthumb 9.417634343128157 -8.477037328753298
29
root 0.3241311172128742 17.961639986748793 0.682224079629087 -1.8409250814178755 -2.4735137747383646 0.6767475556400475
lfemur 6.257127889242472 -2.0077992612397417 -25.245821927887285
ltibia 18.370880730100986
lfoot -6.23644765515086 0.43273713155897964
ltoes -16.226759525990957
rfemur -32.06689179197818 2.564048290011596 18.912223933415397
rtibia 48.834995257529826
rfoot -12.06338564251547 -3.478368753813235
rtoes 0.6934339242373855
lowerback 9.962052503376693 -1.1234604115611009 -3.8854790911012067
upperback 0.3078400354062351 -1.9184019098200218 1.5232412062418175
thorax -5.207070781249621 -0.8148856732653328 3.6462931226658086
lowerneck -17.63067983377826 -2.6862493897966018 -1.2885735374367222
upperneck 20.872601177158852 -3.465173879844587 0.8717518509720076
head 9.534773365550095 -1.6735839400234231 0.19755132937452632
lclavicle -4.207700654847289e-15 -1.3568087130952919e-15
lhumerus -23.182202150298288 -3.9673843343204958 82.44031763896884
lradius 32.303662206937084
lwrist 8.028997518326001
lhand -26.43032334661221 22.89593347814107
lfingers 7.1250199999999975
lthumb 0.13005469602096642 52.836352301101435
rclavicle -4.207700654847289e-15 -1.3568087130952919e-15
rhumerus -32.57798035147437 -20.04335938096132 -81.15798639350444
rradius 24.17727407734249
rwrist 2.2432036609905874
rhand -16.855513476717075 21.954561944206645
rfingers 7.1250199999999975
rthumb 9.374435578585244 -8.353734238780664
30
root 0.3736032723140125 18.027241719064094 2.6249630003076607 -1.6454435541814814 -3.3154010670152756 0.13193350950416605
lfemur 8.435494660024322 -2.089884000193715 -24.786358660677866
ltibia 17.093622872920115
lfoot -1.1000567652206579 -3.1438785783474685
ltoes -15.544545650137602
rfemur -31.516009339634103 3.4298406249148767 19.894618756297568
rtibia 43.41834342602102
rfoot -12.117219714413897 -2.444206821105804
rtoes -0.22441633375207548
lowerback 9.803002919616937 -1.243411476261966 -3.382024889066882
upperback 0.19220375534363682 -1.9603795517520428 1.8117725546945824
thorax -5.179678522856651 -0.8503584705852844 3.7820972172270486
lowerneck -17.551143604537373 -2.606780531716911 -1.380807047260205
upperneck 21.066718907003278 -3.333929309659622 0.6937911978980534
head 9.595844153321991 -1.627993315434074 0.17551223256037898
lclavicle -3.875134436065723e-15 -1.1349984751890333e-15
lhumerus -23.230483480088072 -3.4747013818236336 82.1058604177479
lradius 32.965572992350445
lwrist 8.036286360916659
lhand -25.88765426313571 22.814246200195587
lfingers 7.1250199999999975
lthumb 0.6541236779436529 52.74663947671446
rclavicle -3.875134436065723e-15 -1.1349984751890333e-15
rhumerus -33.01276473705798 -20.50169076884056 -80.58538564550426
rradius 24.76558675890882
rwrist 2.668217214991277
rhand -16.856546447576317 22.02701294308033
rfingers 7.1250199999999975
rthumb 9.37339348339568 -8.23178897958419
31
root 0.4341754452563912 18.091034323961683 5.282020187945551 -1.3466746375185794 -3.871490186132118 0.04515091395510762
lfemur 10.748104495212921 -2.534265401209159 -24.669665839352298
ltibia 15.638590063734505
lfoot 3.266482302478807 -5.584256977656657
ltoes -13.445152869492087
rfemur -30.64841125475334 4.089820293205988 20.781038528834173
rtibia 38.02491325688883
rfoot -11.63000473428283 -1.4486631066274311
rtoes -1.4512488689190115
lowerback 9.674614749634436 -1.3311001884676479 -2.852367362848665
upperback 0.11869930804416134 -1.978665391245762 2.0074158595821543
thorax -5.119387442833475 -0.8753977820262707 3.895848055182292
lowerneck -17.47513725804367 -2.5471843954543245 -1.4894592572573115
upperneck 21.221149319762958 -3.2296529436400547 0.5760185010868686
head 9.656536936005022 -1.5922619686406043 0.16179818575885027
lclavicle -3.1080869930524635e-15 -6.23364245726199e-16
lhumerus -23.160407193437248 -3.4450169439922966 81.81126936294415
lradius 33.53793232611656
lwrist 7.400773056192296
lhand -25.604877330834714 22.82347864129258
lfingers 7.1250199999999975
lthumb 0.9272419961956843 52.7554211051609
rclavicle -3.1080869930524635e-15 -6.23364245726199e-16
rhumerus -33.262609276958614 -21.28344956386221 -79.78369377076208
rradius 25.300355970101936
rwrist 3.547142034298099
rhand -16.882662355887373 22.431679496160488
rfingers 7.1250199999999975
rthumb 9.348168751976841 -7.833221930293508
